<svg viewBox="0 0 70 70" xmlns="http://www.w3.org/2000/svg"><path d="M25.93 38.5l2.125-1.06 1.06 2.123-2.123 1.061L25.93 38.5zm-12.775 6.337l2.121-1.06 1.061 2.121-2.121 1.061-1.061-2.122zm4.244-2.12l2.122-1.061 1.06 2.122-2.121 1.06-1.061-2.121zm4.244-2.121l2.122-1.061 1.06 2.122-2.121 1.06-1.061-2.121zm12.86-2.04l1.061-2.122 2.122 1.06-1.061 2.122-2.122-1.06zm4.245 2.13l1.062-2.122 2.121 1.06-1.06 2.123-2.123-1.061zm8.546 4.211l1.06-2.124 2.125 1.061-1.06 2.124-2.125-1.06zm-4.302-2.087l1.061-2.122 2.122 1.061-1.06 2.122-2.123-1.06z" fill="#fff"/><path d="M63.819 48.05l-3.056-1.527 1.27 3.806-6.678-4.017V22.126a1.186 1.186 0 00-.656-1.061L33.996 10.713V4.69l2.837 2.839V4.112L32.809.09l-4.023 4.023V7.53l2.837-2.839v6.023L10.919 21.065a1.186 1.186 0 00-.656 1.061v24.186L3.585 50.33l1.27-3.806-3.056 1.527L0 53.45l5.398 1.799 3.056-1.528-3.808-1.268 6.804-4.08 20.828 10.415a1.14 1.14 0 001.057-.01l.005.01 20.829-10.415 6.803 4.08-3.807 1.268 3.055 1.528 5.398-1.8-1.799-5.397zm-31.01-16.57l-18.706-9.354 18.706-9.353 18.706 9.353L32.81 31.48zm-20.172-7.434l18.986 9.493v2.093l-1.468.734 1.062 2.123.406-.203v17.52l-18.987-9.494V24.046zm21.359 31.76V33.538l18.986-9.493v21.08l-.406-.203-1.061 2.123-17.52 8.76z" fill="#fff"/><path d="M31.623 27.4h2.373v2.11h-2.373V27.4zm0-4.22h2.373v2.11h-2.373v-2.11zm0-8.437h2.373v2.11h-2.373v-2.11zm0 4.219h2.373v2.11h-2.373v-2.11z" fill="#fff"/></svg>