<svg viewBox="0 0 70 70" xmlns="http://www.w3.org/2000/svg"><path d="M43.337 32.47c0-8.917-7.253-16.012-16.012-16.012-8.901 0-16.011 7.23-16.011 16.011 0 8.83 7.182 16.012 16.011 16.012 8.838 0 16.012-7.165 16.012-16.012zM18.324 22.347c1.111.514 2.43.533 3.627.548.657.009 1.747.023 2.012.21.128.378-.425 1.007-1.104 1.728-.767.813-1.635 1.735-1.445 2.905.21 1.295 1.266 1.822 1.897 2.137.181.09.477.238.562.326-.023.422-.594 1.547-1.353 2.727-1.369-1.486-3.845-3.878-6.267-4.705a8.048 8.048 0 00-1.667-.365 13.626 13.626 0 013.738-5.51zM13.777 32.47c0-.737.061-1.473.18-2.197.564.04 1.062.134 1.501.284 2.127.726 4.7 3.368 5.87 4.735-.149 1.067-.366 3.31.123 4.925.379 1.252 2.088 3.726 3.457 5.585-6.321-1.143-11.131-6.686-11.131-13.332zm12.64 9.383c-.157.38-.247.878-.29 1.43-1.177-1.658-2.126-3.146-2.318-3.78-.224-.738-.224-1.824-.157-2.757 3.226 1.498 2.88 1.527 4.168 2.263.794.455.949.595.966.81-.104.082-.34.203-.502.288-.614.317-1.454.752-1.867 1.746zm2.23 4.101c-.135-1.48-.123-2.748.046-3.159.067-.162.4-.334.722-.5.687-.355 1.837-.95 1.837-2.434 0-1.725-1.277-2.456-2.209-2.99-1.215-.695-1.044-.838-4.555-2.453.795-1.212 2.043-3.234 1.821-4.608-.21-1.294-1.266-1.822-1.898-2.136-.152-.077-.388-.194-.509-.282.148-.23.502-.604.75-.867.938-.996 2.356-2.501 1.58-4.38-.691-1.665-2.582-1.69-4.25-1.71-.278-.004-.565-.008-.848-.02 1.899-.98 4-1.493 6.191-1.493 2.807 0 5.524.877 7.785 2.464h-.165c-.026 0-.052 0-.078.002-1.015.064-6.079.546-6.079 3.693 0 1.015.517 1.809 1.455 2.234.613.279 1.32.365 2.004.449.561.069 1.5.184 1.65.428.194.312.114.665-.128 1.454-.283.92-.67 2.178.129 3.473.788 1.274 2.095 1.566 3.145 1.801.79.177 1.474.33 1.899.82.13.15.464.626.913 1.89a13.45 13.45 0 01-11.207 8.324zm12.127-11.859c-.954-1.076-2.194-1.355-3.193-1.578-.86-.193-1.357-.32-1.588-.694-.192-.312-.113-.664.13-1.453.283-.92.67-2.18-.13-3.474-.772-1.25-2.255-1.431-3.447-1.577-.403-.05-1.054-.13-1.294-.248.028-.38 1.722-1.083 3.735-1.222h2.787a13.513 13.513 0 013 10.246z" fill="#fff"/><path d="M53.992 17.074a4.923 4.923 0 00-6.01-2.145c-4.37-5.213-10.032-8.745-15.795-9.851A4.934 4.934 0 0027.325.94a4.934 4.934 0 00-4.863 4.138C16.701 6.183 11.037 9.715 6.67 14.93a4.925 4.925 0 00-4.864 8.42A26.981 26.981 0 00.23 32.47c0 3.136.53 6.2 1.576 9.121A4.935 4.935 0 00.66 47.867a4.92 4.92 0 006.009 2.142c4.368 5.216 10.032 8.748 15.794 9.854A4.934 4.934 0 0027.325 64a4.934 4.934 0 004.863-4.137 22.98 22.98 0 003.697-1.036 1.232 1.232 0 00-.859-2.309 20.586 20.586 0 01-3.07.88 4.945 4.945 0 00-4.63-3.251 4.944 4.944 0 00-4.633 3.251c-5.073-1.038-10.079-4.187-14.007-8.816a4.95 4.95 0 00.506-5.644 4.946 4.946 0 00-5.142-2.382 24.537 24.537 0 01-1.358-8.086c0-2.778.457-5.492 1.358-8.085A4.947 4.947 0 009.193 22a4.95 4.95 0 00-.507-5.643c3.928-4.63 8.934-7.778 14.008-8.816a4.944 4.944 0 004.631 3.251 4.944 4.944 0 004.632-3.251c5.073 1.038 10.079 4.187 14.007 8.816a4.95 4.95 0 00-.506 5.644 4.944 4.944 0 005.142 2.382 24.534 24.534 0 011.358 8.087 24.54 24.54 0 01-1.358 8.085 4.949 4.949 0 00-5.143 2.384c-1.055 1.83-.797 4.094.507 5.643a30.63 30.63 0 01-2.091 2.228 1.231 1.231 0 101.709 1.774 33.09 33.09 0 002.4-2.575 4.918 4.918 0 006.01-2.144 4.935 4.935 0 00-1.147-6.274 26.98 26.98 0 001.577-9.121c0-3.136-.531-6.199-1.576-9.121a4.935 4.935 0 001.146-6.275zM27.325 56.61c1.35 0 2.463 1.1 2.463 2.463a2.466 2.466 0 01-2.463 2.464 2.466 2.466 0 01-2.463-2.464 2.468 2.468 0 012.463-2.463zM3.69 43.27a2.47 2.47 0 013.37.9 2.469 2.469 0 01-.904 3.365 2.462 2.462 0 01-3.364-.901 2.466 2.466 0 01.898-3.364zm3.37-22.502a2.469 2.469 0 01-3.367.902 2.466 2.466 0 01-.901-3.364 2.461 2.461 0 013.362-.903 2.469 2.469 0 01.906 3.365zM27.325 8.33c-1.35 0-2.463-1.1-2.463-2.463a2.466 2.466 0 012.463-2.464 2.466 2.466 0 012.463 2.464 2.468 2.468 0 01-2.463 2.463zM51.86 46.633a2.462 2.462 0 01-3.52.806 2.472 2.472 0 01-.748-3.268 2.469 2.469 0 013.366-.902 2.466 2.466 0 01.901 3.364zm-.9-24.963a2.469 2.469 0 01-3.369-.9 2.472 2.472 0 01.747-3.269 2.462 2.462 0 013.52.805 2.466 2.466 0 01-.898 3.364z" fill="#fff"/><path d="M40.38 56.364a1.232 1.232 0 100-2.464 1.232 1.232 0 000 2.464z" fill="#fff"/></svg>