<svg width="155" height="127" fill="none" xmlns="http://www.w3.org/2000/svg"><path fill-rule="evenodd" clip-rule="evenodd" d="M76.832 111.726a43.834 43.834 0 01-32.803 14.985 43.815 43.815 0 01-32.934-14.697A43.875 43.875 0 01.317 77.581 43.88 43.88 0 0118.99 46.71v17.886a30.864 30.864 0 000 36.511v17.706h33.536c10.72 0 18.821-2.363 24.307-7.088zM60.215.861H148.7a3.782 3.782 0 013.783 3.786v52.106a16.536 16.536 0 00-4.729-6.398 22.002 22.002 0 00-6.573-3.785V15.653a2.904 2.904 0 00-2.894-2.896H70.656a2.893 2.893 0 00-2.837 2.896v8.621h-11.35V4.647A3.786 3.786 0 0160.252.86" fill="#124F9D"/><path d="M56.47 26.545h68.52v15.7h-24.287v77.923H80.757V42.245H56.469v-15.7z" fill="#fff"/><path d="M21.742 45.964H77.39v15.7H41.66v39.813h9.74a19.873 19.873 0 007.567-1.23 7.873 7.873 0 005.296-7.855 8.756 8.756 0 00-3.074-7.041 12.29 12.29 0 00-8.18-2.602 33.59 33.59 0 00-7.652.946V68.998a50.891 50.891 0 0110.678-1.04c8.38 0 15.154 1.923 20.324 5.772 5.612 4.151 8.415 10.201 8.408 18.15 0 6.367-1.954 11.631-5.864 15.795-5.233 5.615-13.55 8.42-24.949 8.413H21.742V45.964zm89.176 23.876l-14.801-5.677a30.958 30.958 0 0111.954-13.505c5.132-3.091 11.292-4.64 18.48-4.646 8.506 0 15.057 1.956 19.653 5.867a15.484 15.484 0 015.864 12.303 13.86 13.86 0 01-3.783 9.927 16.894 16.894 0 01-6.526 4.154v.455a17.307 17.307 0 019.542 6.523 17.331 17.331 0 013.311 11.079 16.71 16.71 0 01-5.476 12.823c-4.975 4.637-12.755 6.955-23.341 6.955a42.636 42.636 0 01-14.839-2.261 33.337 33.337 0 01-15.69-12.454l13.798-7.95a23.002 23.002 0 009.259 7.41 17.004 17.004 0 006.431 1.259 15.012 15.012 0 008.03-1.893 7.187 7.187 0 002.515-9.57 7.176 7.176 0 00-2.468-2.619c-2.232-1.388-5.208-2.082-8.928-2.082h-6.526V72.907h8.087a14.48 14.48 0 005.069-.72 5.253 5.253 0 003.669-5.242 6.127 6.127 0 00-1.986-4.6 9.34 9.34 0 00-6.79-2.346c-6.154 0-10.99 3.28-14.508 9.842z" fill="#fff"/></svg>