<svg width="83" height="68" fill="none" xmlns="http://www.w3.org/2000/svg"><path fill-rule="evenodd" clip-rule="evenodd" d="M41.513 59.118A23.376 23.376 0 0124.02 67.11a23.363 23.363 0 01-17.562-7.837A23.393 23.393 0 01.712 40.911a23.4 23.4 0 019.956-16.461v9.537a16.458 16.458 0 000 19.47v9.441h17.884c5.715 0 10.036-1.26 12.96-3.78zM32.652 0h47.185a2.017 2.017 0 012.017 2.019v27.785a8.822 8.822 0 00-2.522-3.411 11.744 11.744 0 00-3.505-2.019V7.888a1.55 1.55 0 00-1.543-1.545H38.22a1.543 1.543 0 00-1.513 1.545v4.597h-6.052V2.019A2.02 2.02 0 0132.672 0" fill="#000"/><path d="M30.655 13.696h36.538v8.372h-12.95V63.62H43.605V22.068h-12.95v-8.372z" fill="#124F9D"/><path d="M12.136 24.051H41.81v8.372H22.757v21.23h5.195a10.587 10.587 0 004.034-.656 4.197 4.197 0 002.824-4.188 4.671 4.671 0 00-1.639-3.755 6.554 6.554 0 00-4.362-1.388 17.91 17.91 0 00-4.08.505v-7.837a27.125 27.125 0 015.694-.555c4.468 0 8.08 1.026 10.838 3.078 2.992 2.214 4.487 5.44 4.483 9.68 0 3.394-1.042 6.201-3.127 8.422-2.79 2.994-7.225 4.49-13.304 4.486H12.136V24.05zm47.553 12.732l-7.893-3.028a16.509 16.509 0 016.375-7.2c2.736-1.65 6.021-2.475 9.854-2.479 4.536 0 8.029 1.043 10.48 3.13a8.255 8.255 0 013.127 6.56 7.398 7.398 0 01-2.017 5.293 9.006 9.006 0 01-3.48 2.216v.242a9.229 9.229 0 016.853 9.386 8.907 8.907 0 01-2.92 6.838c-2.652 2.473-6.801 3.709-12.446 3.709-2.689.07-5.367-.34-7.913-1.206a17.774 17.774 0 01-8.367-6.641l7.358-4.24a12.266 12.266 0 004.938 3.952 9.072 9.072 0 003.429.671 8.004 8.004 0 004.282-1.009 3.83 3.83 0 001.34-5.103 3.828 3.828 0 00-1.315-1.397c-1.19-.74-2.777-1.11-4.761-1.11h-3.48v-6.949h4.312a7.722 7.722 0 002.703-.383 2.799 2.799 0 001.957-2.796 3.267 3.267 0 00-1.059-2.453 4.981 4.981 0 00-3.621-1.251c-3.281 0-5.86 1.75-7.736 5.248z" fill="#124F9D"/></svg>