<svg viewBox="0 0 75 65" xmlns="http://www.w3.org/2000/svg"><path d="M19.932 40.728H3.372c-.62 0-1.124.461-1.124 1.03s.504 1.03 1.124 1.03h16.56c.62 0 1.124-.461 1.124-1.03s-.503-1.03-1.124-1.03zm-3.284-6.183H3.372c-.62 0-1.124.461-1.124 1.03s.504 1.03 1.124 1.03h13.276c.622 0 1.125-.461 1.125-1.03s-.504-1.03-1.125-1.03z" fill="#fff"/><path d="M3.373 34.545C1.482 34.545 0 36.355 0 38.667c0 2.31 1.482 4.121 3.373 4.121 1.89 0 3.372-1.81 3.372-4.121 0-2.312-1.482-4.122-3.372-4.122zm0 6.183c-.459 0-1.125-.804-1.125-2.061 0-1.258.666-2.062 1.125-2.062.458 0 1.124.804 1.124 2.062 0 1.257-.666 2.06-1.124 2.06z" fill="#fff"/><path d="M16.38 34.545H3.372c-.62 0-1.124.461-1.124 1.03s.504 1.03 1.124 1.03H16.38c.62 0 1.125-.461 1.125-1.03s-.504-1.03-1.125-1.03zm3.552-6.183H3.372c-.62 0-1.124.461-1.124 1.03s.504 1.03 1.124 1.03h16.56c.62 0 1.124-.461 1.124-1.03s-.503-1.03-1.124-1.03z" fill="#fff"/><path d="M3.373 28.362C1.482 28.362 0 30.172 0 32.484c0 2.31 1.482 4.121 3.373 4.121 1.89 0 3.372-1.81 3.372-4.121 0-2.312-1.482-4.122-3.372-4.122zm0 6.183c-.459 0-1.125-.804-1.125-2.061 0-1.258.666-2.062 1.125-2.062.458 0 1.124.804 1.124 2.062 0 1.257-.666 2.06-1.124 2.06zm16.559-6.183H7.87c-.62 0-1.124.461-1.124 1.03s.504 1.03 1.124 1.03h12.063c.621 0 1.124-.461 1.124-1.03s-.503-1.03-1.124-1.03zm-7.919-6.183H7.869c-.62 0-1.124.461-1.124 1.03s.504 1.03 1.124 1.03h4.144c.621 0 1.124-.461 1.124-1.03s-.504-1.03-1.124-1.03z" fill="#fff"/><path d="M6.513 22.179c-1.89 0-3.373 1.81-3.373 4.122 0 2.311 1.482 4.122 3.373 4.122 1.89 0 3.372-1.81 3.372-4.122s-1.481-4.122-3.372-4.122zm0 6.183c-.458 0-1.124-.804-1.124-2.061 0-1.258.666-2.061 1.124-2.061.458 0 1.124.803 1.124 2.06 0 1.258-.666 2.062-1.124 2.062z" fill="#fff"/><path d="M11.955 22.179H3.372c-.62 0-1.124.461-1.124 1.03s.504 1.03 1.124 1.03h8.583c.62 0 1.124-.461 1.124-1.03s-.504-1.03-1.124-1.03zm8.167-6.183H6.359c-.516 0-.934.461-.934 1.03s.418 1.03.934 1.03h13.763c.516 0 .934-.461.934-1.03s-.418-1.03-.934-1.03z" fill="#fff"/><path d="M3.373 15.996C1.482 15.996 0 17.806 0 20.118c0 2.311 1.482 4.122 3.373 4.122 1.89 0 3.372-1.811 3.372-4.122 0-2.312-1.482-4.122-3.372-4.122zm0 6.183c-.459 0-1.125-.804-1.125-2.061 0-1.258.666-2.061 1.125-2.061.458 0 1.124.803 1.124 2.06 0 1.258-.666 2.062-1.124 2.062zM27.784 9.813H7.8c-.562 0-1.018.461-1.018 1.03s.456 1.03 1.018 1.03h19.985c.563 0 1.018-.461 1.018-1.03s-.456-1.03-1.018-1.03z" fill="#fff"/><path d="M7.441 9.813c-1.89 0-3.373 1.81-3.373 4.122 0 2.311 1.482 4.121 3.373 4.121 1.89 0 3.372-1.81 3.372-4.121 0-2.312-1.481-4.122-3.372-4.122zm0 6.183c-.458 0-1.124-.804-1.124-2.061 0-1.258.666-2.062 1.124-2.062.458 0 1.124.804 1.124 2.062 0 1.257-.666 2.06-1.124 2.06zM63.079 43.82H24.857c-.458 0-1.124-.804-1.124-2.062 0-1.258.666-2.061 1.124-2.061h38.222c.62 0 1.124-.462 1.124-1.03 0-.57-.504-1.03-1.124-1.03H24.857c-1.89 0-3.373 1.81-3.373 4.121 0 2.311 1.482 4.122 3.373 4.122h38.222c.62 0 1.124-.462 1.124-1.03 0-.57-.504-1.03-1.124-1.03z" fill="#fff"/><path d="M63.079 37.636c-1.891 0-3.373 1.81-3.373 4.122 0 2.311 1.482 4.122 3.373 4.122 1.89 0 3.372-1.81 3.372-4.122 0-2.311-1.481-4.122-3.372-4.122zm0 6.183c-.458 0-1.124-.803-1.124-2.061s.666-2.061 1.124-2.061c.458 0 1.124.803 1.124 2.061s-.666 2.061-1.124 2.061z" fill="#fff"/><path d="M59.706 37.636H21.484c-.458 0-1.124-.803-1.124-2.06 0-1.259.666-2.062 1.124-2.062h38.222c.62 0 1.124-.462 1.124-1.03 0-.57-.503-1.03-1.124-1.03H21.484c-1.89 0-3.372 1.81-3.372 4.121 0 2.311 1.482 4.122 3.372 4.122h38.222c.62 0 1.124-.462 1.124-1.03 0-.57-.503-1.03-1.124-1.03z" fill="#fff"/><path d="M59.706 31.453c-1.89 0-3.372 1.81-3.372 4.122 0 2.311 1.481 4.122 3.372 4.122 1.891 0 3.373-1.81 3.373-4.122 0-2.311-1.482-4.122-3.373-4.122zm0 6.183c-.458 0-1.124-.803-1.124-2.06 0-1.259.666-2.062 1.124-2.062.458 0 1.124.803 1.124 2.061s-.666 2.061-1.124 2.061z" fill="#fff"/><path d="M63.079 31.453H24.857c-.458 0-1.124-.803-1.124-2.06 0-1.259.666-2.062 1.124-2.062h38.222c.62 0 1.124-.462 1.124-1.03 0-.57-.504-1.03-1.124-1.03H24.857c-1.89 0-3.373 1.81-3.373 4.121 0 2.311 1.482 4.122 3.373 4.122h38.222c.62 0 1.124-.462 1.124-1.03 0-.57-.504-1.03-1.124-1.03z" fill="#fff"/><path d="M63.079 25.27c-1.891 0-3.373 1.81-3.373 4.122 0 2.311 1.482 4.122 3.373 4.122 1.89 0 3.372-1.81 3.372-4.122 0-2.311-1.481-4.122-3.372-4.122zm0 6.183c-.458 0-1.124-.803-1.124-2.06 0-1.259.666-2.062 1.124-2.062.458 0 1.124.803 1.124 2.061s-.666 2.061-1.124 2.061zM55.21 25.27H16.987c-.458 0-1.124-.803-1.124-2.06 0-1.259.666-2.062 1.124-2.062H55.21c.62 0 1.124-.462 1.124-1.03 0-.57-.503-1.03-1.124-1.03H16.987c-1.89 0-3.372 1.81-3.372 4.121 0 2.311 1.482 4.122 3.372 4.122H55.21c.62 0 1.124-.462 1.124-1.03 0-.57-.503-1.03-1.123-1.03z" fill="#fff"/><path d="M57.244 19.087c-1.89 0-3.373 1.81-3.373 4.122 0 2.311 1.482 4.122 3.373 4.122 1.89 0 3.372-1.81 3.372-4.122 0-2.311-1.481-4.122-3.372-4.122zm0 6.183c-.458 0-1.124-.803-1.124-2.06 0-1.259.666-2.062 1.124-2.062.458 0 1.124.803 1.124 2.061s-.666 2.061-1.124 2.061z" fill="#fff"/><path d="M63.079 19.087H24.857c-.458 0-1.124-.803-1.124-2.06 0-1.259.666-2.062 1.124-2.062h38.222c.62 0 1.124-.461 1.124-1.03s-.504-1.03-1.124-1.03H24.857c-1.89 0-3.373 1.81-3.373 4.121 0 2.312 1.482 4.122 3.373 4.122h38.222c.62 0 1.124-.462 1.124-1.03 0-.57-.504-1.03-1.124-1.03z" fill="#fff"/><path d="M63.079 12.904c-1.891 0-3.373 1.81-3.373 4.122s1.482 4.122 3.373 4.122c1.89 0 3.372-1.81 3.372-4.122 0-2.311-1.481-4.122-3.372-4.122zm0 6.183c-.458 0-1.124-.803-1.124-2.06 0-1.259.666-2.062 1.124-2.062.458 0 1.124.803 1.124 2.061s-.666 2.061-1.124 2.061zM24.649 3.63H12.645c-.617 0-1.118.461-1.118 1.03 0 .57.501 1.03 1.118 1.03H24.65c.618 0 1.118-.46 1.118-1.03 0-.569-.501-1.03-1.118-1.03z" fill="#fff"/><path d="M12.866 3.63c-1.891 0-3.373 1.81-3.373 4.122 0 2.311 1.482 4.122 3.373 4.122 1.891 0 3.372-1.81 3.372-4.122S14.757 3.63 12.866 3.63zm0 6.183c-.459 0-1.124-.804-1.124-2.061 0-1.258.665-2.061 1.124-2.061.458 0 1.124.803 1.124 2.06 0 1.258-.666 2.062-1.124 2.062zm41.219 3.091h-22.05c-.163-.256-.433-.953-.433-2.06 0-1.108.27-1.806.434-2.062h22.05c.62 0 1.123-.462 1.123-1.03 0-.57-.503-1.03-1.124-1.03H31.79c-1.682 0-2.436 2.07-2.436 4.121 0 2.052.754 4.122 2.436 4.122h22.296c.621 0 1.124-.461 1.124-1.03 0-.57-.503-1.03-1.124-1.03z" fill="#fff"/><path d="M54.085 6.721c-1.89 0-3.372 1.81-3.372 4.122s1.481 4.122 3.372 4.122c1.891 0 3.373-1.81 3.373-4.122 0-2.311-1.482-4.122-3.373-4.122zm0 6.183c-.458 0-1.124-.803-1.124-2.06 0-1.259.666-2.062 1.124-2.062.458 0 1.124.803 1.124 2.061s-.666 2.061-1.124 2.061zm-5.588-6.183h-19.66c-.146-.256-.387-.953-.387-2.06 0-1.108.24-1.806.387-2.062h19.66c.553 0 1.002-.461 1.002-1.03 0-.57-.449-1.03-1.002-1.03h-19.88c-1.5 0-2.172 2.07-2.172 4.121 0 2.052.672 4.122 2.172 4.122h19.88c.554 0 1.002-.462 1.002-1.03 0-.57-.449-1.03-1.002-1.03z" fill="#fff"/><path d="M48.233.538c-1.891 0-3.373 1.81-3.373 4.122s1.482 4.122 3.373 4.122c1.89 0 3.372-1.81 3.372-4.122 0-2.311-1.482-4.122-3.372-4.122zm0 6.183c-.459 0-1.125-.803-1.125-2.06 0-1.259.666-2.062 1.125-2.062.458 0 1.124.803 1.124 2.061s-.666 2.061-1.124 2.061z" fill="#fff"/></svg>