<svg viewBox="0 0 55 55" xmlns="http://www.w3.org/2000/svg"><path d="M7.322 30.202a.915.915 0 00-.915.915v3.66a.915.915 0 001.83 0v-3.66a.915.915 0 00-.915-.915zm3.661 1.83a.915.915 0 00-.915.915v3.661a.915.915 0 001.83 0v-3.66a.915.915 0 00-.915-.916zm33.381 4.912a.915.915 0 00-1.025 1.516 5.491 5.491 0 11-3.07-.937.915.915 0 000-1.83 7.322 7.322 0 104.095 1.251z" fill="#fff"/><path d="M50.82 39.975a10.977 10.977 0 00-5.975-6.936V12.813a.915.915 0 00-.45-.788L24.262.127a.915.915 0 00-.931 0L3.195 12.025c-.019.011-.032.027-.05.04-.02.013-.036.028-.055.042a.9.9 0 00-.202.224c0 .006-.011.01-.015.016v.007a.916.916 0 00-.103.299c0 .027-.008.053-.011.08-.003.028-.013.053-.013.08v23.795c0 .324.17.623.45.788L23.33 49.294a.749.749 0 00.074.03c.025.013.05.024.077.034a.816.816 0 00.63 0 .716.716 0 00.077-.033c.024-.011.05-.018.074-.031l5.464-3.23c1.682 5.825 7.767 9.184 13.592 7.502 5.825-1.681 9.184-7.766 7.502-13.591zM23.796 1.978l4.759 2.812-7.056 4.17a.916.916 0 00.931 1.577l7.925-4.68 4.759 2.813L16.779 19.5l-4.76-2.812 7.667-4.53a.916.916 0 00-.931-1.577l-8.534 5.043-4.76-2.812L23.796 1.978zm-7.932 19.11v6.11l-4.728-2.794v-6.11l4.728 2.793zm13.784 19.097a10.94 10.94 0 00-.361 2.83c0 .383.02.765.06 1.146l-4.636 2.741V43.93a.915.915 0 00-1.83 0v2.972L4.575 36.086V14.418l4.73 2.794v7.715a.914.914 0 00.449.789l6.558 3.875a.915.915 0 001.381-.788v-6.634l5.186 3.065V40.27a.915.915 0 001.83 0V25.233l16.588-9.802a.915.915 0 00-.932-1.576l-16.57 9.793-5.217-3.083L36.914 9.73l6.1 3.605v19.063c-5.84-1.54-11.825 1.946-13.366 7.787zM40.27 52.166a9.152 9.152 0 119.152-9.151 9.162 9.162 0 01-9.152 9.151z" fill="#fff"/><path d="M43.64 40.537a.915.915 0 00-1.272 0l-3.471 3.471-.726-.725a.915.915 0 00-1.294 1.294l1.372 1.373a.915.915 0 001.295 0l4.118-4.119a.915.915 0 00-.022-1.294z" fill="#fff"/></svg>