<svg width="52" height="52" fill="none" xmlns="http://www.w3.org/2000/svg"><g clip-path="url(#clip0)" fill="#fff"><path d="M31.881 21.17l-7.813 7.38-3.75-3.858a1.08 1.08 0 10-1.55 1.506l4.498 4.616a1.1 1.1 0 001.528.033l8.594-8.106a1.08 1.08 0 00.043-1.528 1.106 1.106 0 00-1.55-.043z"/><path d="M26.084 9.813c-8.93 0-16.19 7.26-16.19 16.19 0 8.93 7.26 16.19 16.19 16.19 8.93 0 16.19-7.26 16.19-16.19 0-8.93-7.26-16.19-16.19-16.19zm0 30.212c-7.737 0-14.023-6.296-14.023-14.023 0-7.726 6.286-14.022 14.023-14.022 7.745 0 14.023 6.278 14.023 14.022 0 7.745-6.278 14.023-14.023 14.023z"/><path d="M48.364 20.043l.358-6.427a1.081 1.081 0 00-.596-1.03l-5.722-2.893-2.893-5.721a1.1 1.1 0 00-1.03-.596l-6.437.347L26.68.179a1.083 1.083 0 00-1.192 0l-5.364 3.544-6.426-.358a1.08 1.08 0 00-1.03.596L9.776 9.683l-5.722 2.893a1.098 1.098 0 00-.596 1.03l.358 6.426L.27 25.396c-.238.362-.238.83 0 1.192l3.533 5.375-.358 6.426c-.025.431.21.837.596 1.03l5.722 2.893 2.894 5.722c.196.383.599.616 1.029.596l6.426-.358 5.364 3.544c.36.246.833.246 1.192 0l5.365-3.544 6.426.358c.431.025.836-.21 1.03-.596l2.893-5.722 5.722-2.893a1.1 1.1 0 00.596-1.03l-.358-6.426 3.543-5.364a1.08 1.08 0 000-1.192l-3.522-5.364zM46.35 31.074a1.018 1.018 0 00-.173.662l.335 6.079-5.407 2.73a1.076 1.076 0 00-.477.478l-2.73 5.407-6.08-.336a1.183 1.183 0 00-.661.173l-5.072 3.35-5.071-3.35a1.072 1.072 0 00-.596-.184h-.054l-6.08.336-2.73-5.407a1.068 1.068 0 00-.478-.477l-5.418-2.72.336-6.08a1.184 1.184 0 00-.174-.66l-3.348-5.072 3.348-5.072c.133-.193.194-.427.174-.66l-.336-6.08 5.408-2.731c.206-.103.373-.27.476-.477l2.731-5.407 6.08.336a1.19 1.19 0 00.66-.174l5.072-3.348 5.072 3.348c.194.133.427.194.66.174l6.08-.336 2.731 5.407c.103.206.27.374.477.477l5.407 2.73-.335 6.08c-.009.233.052.463.173.661l3.349 5.072-3.35 5.071z"/></g><defs><clipPath id="clip0"><path fill="#fff" d="M0 0h52v52H0z"/></clipPath></defs></svg>