<svg viewBox="0 0 55 55" xmlns="http://www.w3.org/2000/svg"><g fill="#fff"><path d="M.839 25.489h.03a.85.85 0 00.85-.821C2.179 11.532 13.2 1.256 26.336 1.715a23.8 23.8 0 0113.89 5.086h-4.523a.85.85 0 000 1.7h6.811a.856.856 0 00.196-.04.913.913 0 00.128-.027c.024-.01.042-.032.065-.044a.812.812 0 00.207-.146l.009-.006a.82.82 0 00.058-.092.82.82 0 00.112-.178.813.813 0 00.042-.21.72.72 0 00.021-.107v-6.8a.85.85 0 00-1.7 0v4.923C30.763-3.149 14.7-1.554 5.778 9.337A25.494 25.494 0 00.02 24.61a.85.85 0 00.82.878zm6.879 15.829a.852.852 0 10-1.275 1.13 25.875 25.875 0 001.852 1.876.85.85 0 001.147-1.254 23.98 23.98 0 01-1.724-1.752zm10.143 6.73a23.683 23.683 0 01-2.285-.909.85.85 0 10-.71 1.544c.799.368 1.617.694 2.45.976a.85.85 0 00.545-1.611zm-4.464-2.051a24.382 24.382 0 01-2.052-1.36.85.85 0 10-1.01 1.365c.706.523 1.439 1.01 2.195 1.458a.85.85 0 00.867-1.463zM6.179 39.4a24.131 24.131 0 01-1.333-2.069.851.851 0 10-1.475.85c.438.761.915 1.5 1.428 2.211a.85.85 0 001.38-.992zm-2.371-3.911a.85.85 0 00-.073-.344l-.002-.006a23.737 23.737 0 01-.88-2.295.85.85 0 10-1.615.524c.272.837.586 1.66.942 2.465a.85.85 0 001.628-.344zm-2.244-4.016a.85.85 0 00.655-1.008 24.1 24.1 0 01-.385-2.43.85.85 0 00-1.691.18c.093.874.23 1.742.413 2.602a.85.85 0 001.008.656zm48.077-.868a.85.85 0 00-1.03.62 23.809 23.809 0 01-.713 2.355.85.85 0 101.6.577c.298-.827.553-1.67.764-2.523a.85.85 0 00-.62-1.03zM22.654 49.13a23.822 23.822 0 01-2.424-.416.85.85 0 10-.375 1.658 25.68 25.68 0 002.598.446.85.85 0 00.2-1.688zm25.42-13.677a.85.85 0 00-1.135.395 23.673 23.673 0 01-1.185 2.157.85.85 0 001.445.895 25.46 25.46 0 001.269-2.311.85.85 0 00-.394-1.136zm-2.511 4.421a.85.85 0 00-1.21.155v-.001a23.824 23.824 0 01-1.602 1.87.85.85 0 001.233 1.172 26.02 26.02 0 001.715-2.002.85.85 0 00-.136-1.194zm4.601-14.334a.837.837 0 00-.88.82c-.028.82-.1 1.638-.213 2.451a.85.85 0 001.684.234c.12-.87.197-1.747.228-2.626a.85.85 0 00-.819-.878zM40.97 43.588v.003a24.055 24.055 0 01-1.955 1.502.852.852 0 00.97 1.402 26.088 26.088 0 002.09-1.615.85.85 0 00-1.105-1.292zm-8.575 4.699a23.72 23.72 0 01-2.389.586.85.85 0 00.32 1.67 25.183 25.183 0 002.56-.63.85.85 0 00-.491-1.626zm-4.782.921a.91.91 0 00-.047.004l.004.003a24.54 24.54 0 01-2.07.085h-.388a.88.88 0 00-.866.835.85.85 0 00.834.865h.42c.744 0 1.488-.033 2.21-.095a.85.85 0 10-.097-1.697zm9.31-2.824h.001c-.72.394-1.459.75-2.215 1.069a.85.85 0 00.64 1.575l.018-.008c.81-.34 1.602-.723 2.373-1.145a.85.85 0 10-.817-1.491z"/><path d="M25.5 7.651c-9.857 0-17.849 7.992-17.849 17.85s7.992 17.85 17.85 17.85 17.85-7.992 17.85-17.85c-.012-9.854-7.997-17.839-17.85-17.85zm13.6 18.7h2.507c-.442 8.236-7.02 14.814-15.256 15.256V39.1a.85.85 0 00-1.7 0v2.507c-8.236-.442-14.815-7.02-15.257-15.256h2.507a.85.85 0 000-1.7H9.394c.442-8.236 7.02-14.815 15.257-15.257v2.507a.85.85 0 001.7 0V9.394c8.236.442 14.814 7.02 15.256 15.257H39.1a.85.85 0 000 1.7z"/><path d="M26.35 23.107v-7.806a.85.85 0 10-1.7 0v7.806a2.55 2.55 0 00-1.543 1.544h-4.406a.85.85 0 100 1.7h4.406a2.544 2.544 0 103.244-3.244zm-.85 3.244a.85.85 0 110-1.7.85.85 0 010 1.7z"/></g></svg>